<?xml version="1.0" encoding="utf-8"?>
<!-- Generator: Adobe Illustrator 16.0.0, SVG Export Plug-In . SVG Version: 6.00 Build 0)  -->
<!DOCTYPE svg PUBLIC "-//W3C//DTD SVG 1.1//EN" "http://www.w3.org/Graphics/SVG/1.1/DTD/svg11.dtd">
<svg version="1.1" id="Layer_1" xmlns="http://www.w3.org/2000/svg" xmlns:xlink="http://www.w3.org/1999/xlink" x="0px" y="0px"
	 width="283.333px" height="102.667px" viewBox="31.333 82.948 283.333 102.667"
	 enable-background="new 31.333 82.948 283.333 102.667" xml:space="preserve">
<g>
	<g>
		<g>
			<path fill="none" d="M206.086,118.306c-0.42-0.553-0.943-1-1.564-1.342c-0.623-0.344-1.338-0.512-2.145-0.512
				c-0.822,0-1.559,0.148-2.207,0.447c-0.65,0.299-1.205,0.703-1.67,1.221s-0.82,1.123-1.064,1.816
				c-0.246,0.693-0.369,1.424-0.369,2.195c0,0.736,0.105,1.473,0.316,2.207c0.209,0.738,0.523,1.404,0.947,2
				c0.42,0.598,0.941,1.076,1.564,1.445c0.621,0.371,1.344,0.555,2.168,0.555s1.564-0.164,2.223-0.486
				c0.658-0.326,1.215-0.764,1.67-1.316s0.807-1.188,1.053-1.906c0.244-0.719,0.367-1.463,0.367-2.234
				c0-0.756-0.111-1.486-0.33-2.195C206.824,119.49,206.506,118.857,206.086,118.306z"/>
			<path fill="none" d="M238.523,116.017c-0.502-0.676-1.139-1.219-1.908-1.631c-0.771-0.41-1.691-0.633-2.762-0.67l-1.053,16.305
				c1.053-0.158,2.008-0.504,2.867-1.041c0.857-0.533,1.6-1.189,2.223-1.969c0.621-0.781,1.104-1.65,1.445-2.605
				s0.529-1.941,0.566-2.957v-0.369c0.016-0.945-0.084-1.857-0.305-2.734C239.381,117.469,239.021,116.693,238.523,116.017z"/>
			<polygon fill="none" points="281.213,125.707 285.158,125.707 283.158,116.556 			"/>
			<polygon fill="#1E3953" points="157.069,101.935 133.507,101.935 133.613,112.508 146.182,111.562 132.457,129.441 
				133.507,139.75 156.963,138.804 157.122,127.654 145.499,127.654 157.542,111.402 			"/>
			<path fill="#1E3953" d="M173.736,116.383c0.852-0.662,1.832-1.154,2.941-1.479c1.107-0.322,2.273-0.482,3.498-0.482
				c0.479,0,0.959,0.025,1.439,0.074s0.957,0.141,1.439,0.273l1.389-10.471c-1.027-0.494-2.137-0.836-3.336-1.016
				c-1.201-0.184-2.371-0.275-3.512-0.275c-3.027,0-5.704,0.545-8.027,1.637c-2.323,1.094-4.271,2.582-5.843,4.467
				c-1.572,1.887-2.763,4.082-3.572,6.588c-0.812,2.506-1.215,5.174-1.215,8.002c0,2.135,0.383,4.125,1.153,5.967
				c0.769,1.846,1.823,3.445,3.163,4.801c1.34,1.357,2.92,2.424,4.74,3.201c1.819,0.777,3.779,1.166,5.881,1.166
				c0.727,0,1.488-0.049,2.281-0.15c0.795-0.098,1.59-0.242,2.383-0.432s1.566-0.414,2.32-0.672
				c0.752-0.254,1.451-0.549,2.096-0.879l0.992-11.662c-0.512,0.299-1.074,0.588-1.686,0.869s-1.24,0.531-1.887,0.744
				c-0.645,0.217-1.299,0.391-1.959,0.521c-0.662,0.133-1.299,0.199-1.91,0.199c-0.811,0-1.557-0.102-2.234-0.299
				c-0.678-0.199-1.266-0.504-1.762-0.918s-0.881-0.936-1.154-1.563c-0.272-0.631-0.409-1.375-0.409-2.232
				c0-1.34,0.251-2.508,0.756-3.5C172.206,117.873,172.886,117.043,173.736,116.383z"/>
			<path fill="#1E3953" d="M216.891,115.199c-0.766-1.951-1.846-3.615-3.236-4.99c-1.393-1.375-3.072-2.432-5.039-3.176
				c-1.969-0.74-4.148-1.111-6.535-1.111c-1.482,0-2.891,0.207-4.225,0.617c-1.334,0.412-2.574,0.99-3.719,1.729
				c-1.145,0.744-2.178,1.623-3.1,2.645s-1.709,2.143-2.359,3.359c-0.652,1.221-1.15,2.516-1.496,3.893
				c-0.346,1.375-0.52,2.781-0.52,4.213c0,1.465,0.186,2.873,0.557,4.223c0.371,1.352,0.889,2.615,1.557,3.791
				c0.668,1.18,1.473,2.25,2.422,3.213c0.947,0.963,2.004,1.789,3.174,2.471c1.17,0.686,2.426,1.215,3.768,1.592
				c1.344,0.381,2.756,0.57,4.238,0.57c1.531,0,2.98-0.201,4.348-0.607c1.365-0.402,2.631-0.967,3.793-1.691
				c1.16-0.723,2.207-1.594,3.137-2.607c0.93-1.012,1.721-2.127,2.373-3.348c0.65-1.217,1.148-2.521,1.494-3.914
				s0.518-2.838,0.518-4.336C218.039,119.328,217.656,117.15,216.891,115.199z M206.725,124.476
				c-0.232,0.674-0.561,1.271-0.99,1.791c-0.428,0.518-0.949,0.93-1.566,1.236c-0.619,0.303-1.314,0.455-2.088,0.455
				c-0.775,0-1.453-0.172-2.039-0.518c-0.584-0.346-1.074-0.799-1.469-1.357c-0.396-0.561-0.691-1.188-0.891-1.879
				c-0.197-0.691-0.295-1.383-0.295-2.074c0-0.725,0.115-1.412,0.344-2.063c0.232-0.65,0.564-1.221,1.002-1.707
				c0.436-0.484,0.959-0.867,1.568-1.146s1.301-0.42,2.076-0.42c0.756,0,1.428,0.16,2.014,0.48c0.582,0.32,1.074,0.742,1.469,1.26
				c0.395,0.52,0.695,1.113,0.902,1.781c0.205,0.666,0.309,1.354,0.309,2.063C207.07,123.101,206.955,123.801,206.725,124.476z"/>
			<path fill="#1E3953" d="M245.109,108.252c-1.412-1.318-3.098-2.326-5.047-3.025c-1.953-0.699-4.094-1.051-6.418-1.051
				c-1.869,0-3.752,0.119-5.648,0.355c-1.895,0.236-3.734,0.639-5.523,1.207l-0.684,32.736c0.766,0.08,1.512,0.143,2.244,0.182
				c0.732,0.043,1.479,0.061,2.244,0.061c2.049,0,4.045-0.156,5.99-0.475c1.943-0.318,3.777-0.805,5.5-1.463
				c1.723-0.66,3.311-1.5,4.756-2.525c1.447-1.023,2.697-2.248,3.746-3.67c1.047-1.424,1.865-3.051,2.451-4.881
				c0.586-1.828,0.879-3.881,0.879-6.158c0-2.406-0.396-4.563-1.186-6.463C247.627,111.177,246.525,109.57,245.109,108.252z
				 M239.598,121.449c-0.033,0.943-0.209,1.857-0.523,2.744c-0.318,0.885-0.766,1.691-1.342,2.414
				c-0.578,0.723-1.268,1.332-2.063,1.828c-0.797,0.498-1.684,0.818-2.658,0.965l0.975-15.125c0.992,0.033,1.848,0.242,2.563,0.623
				s1.303,0.887,1.77,1.514c0.463,0.625,0.795,1.346,0.998,2.156c0.205,0.814,0.297,1.66,0.281,2.539V121.449z"/>
			<g>
				<polygon fill="none" points="281.213,125.707 285.158,125.707 283.158,116.556 				"/>
				<polygon fill="#1E3953" points="252.473,103.986 252.473,139.644 263.568,139.066 266.461,103.252 				"/>
				<path fill="#1E3953" d="M290.471,102.621l-14.621,0.736l-10.467,35.025l13.412,1.314l1.314-5.941h5.994l1.58,5.941l13.043-1.682
					L290.471,102.621z M281.213,125.707l1.945-9.15l2,9.15H281.213z"/>
			</g>
		</g>
		<g>
			<g>
				<polygon fill="#1E3953" points="49.474,166.812 75.176,166.812 116.594,102.885 116.594,99.795 90.892,99.795 49.474,163.459 
									"/>
				<polygon fill="#1E3953" points="49.474,142.728 49.474,99.795 77.608,99.795 				"/>
				<polygon fill="#1E3953" points="114.057,127.746 88.46,166.812 97.823,166.812 105.33,155.355 112.836,166.812 114.057,166.812 
					115.519,166.812 116.594,166.812 116.594,131.619 				"/>
			</g>
		</g>
	</g>
	<g>
		<g>
			<path fill="#6F8FAD" d="M147.366,165.998h-2.795v-1.891c-0.91,1.262-2.302,1.891-4.177,1.891c-1.908,0-3.541-0.676-4.9-2.029
				c-1.359-1.355-2.039-2.99-2.039-4.908s0.68-3.566,2.039-4.941c1.359-1.377,2.992-2.064,4.9-2.064c1.688,0,3.08,0.643,4.177,1.924
				v-1.924h2.795V165.998z M144.57,159.06c0-1.141-0.411-2.121-1.233-2.943c-0.822-0.822-1.803-1.234-2.943-1.234
				c-1.129,0-2.103,0.412-2.919,1.234s-1.224,1.803-1.224,2.943c0,1.139,0.405,2.109,1.217,2.91
				c0.811,0.799,1.786,1.199,2.926,1.199c1.139,0,2.121-0.402,2.943-1.209C144.159,161.156,144.57,160.189,144.57,159.06z"/>
			<path fill="#6F8FAD" d="M164.91,159.027c0,2.016-0.694,3.738-2.081,5.162c-1.387,1.426-3.061,2.139-5.022,2.139
				c-1.918,0-3.535-0.816-4.85-2.451v9.75h-2.73v-21.572h2.73v2.121c1.315-1.633,2.932-2.449,4.85-2.449
				c1.962,0,3.636,0.713,5.022,2.137C164.216,155.289,164.91,157.01,164.91,159.027z M162.114,159.019
				c0-1.27-0.441-2.348-1.324-3.234c-0.882-0.887-1.949-1.33-3.198-1.33c-1.249,0-2.313,0.443-3.189,1.33
				c-0.877,0.887-1.315,1.965-1.315,3.234s0.438,2.35,1.315,3.24c0.877,0.893,1.94,1.338,3.189,1.338
				c1.25,0,2.316-0.445,3.198-1.338C161.672,161.369,162.114,160.289,162.114,159.019z"/>
			<path fill="#6F8FAD" d="M181.449,159.027c0,2.016-0.693,3.738-2.08,5.162c-1.387,1.426-3.061,2.139-5.021,2.139
				c-1.919,0-3.535-0.816-4.851-2.451v9.75h-2.73v-21.572h2.73v2.121c1.315-1.633,2.932-2.449,4.851-2.449
				c1.961,0,3.635,0.713,5.021,2.137C180.756,155.289,181.449,157.01,181.449,159.027z M178.654,159.019
				c0-1.27-0.441-2.348-1.324-3.234c-0.881-0.887-1.947-1.33-3.197-1.33s-2.313,0.443-3.189,1.33
				c-0.878,0.887-1.315,1.965-1.315,3.234s0.438,2.35,1.315,3.24c0.877,0.893,1.939,1.338,3.189,1.338s2.316-0.445,3.197-1.338
				C178.213,161.369,178.654,160.289,178.654,159.019z"/>
			<path fill="#6F8FAD" d="M196.922,165.998h-2.795v-1.891c-0.91,1.262-2.301,1.891-4.176,1.891c-1.908,0-3.541-0.676-4.9-2.029
				c-1.359-1.355-2.039-2.99-2.039-4.908s0.68-3.566,2.039-4.941c1.359-1.377,2.992-2.064,4.9-2.064c1.688,0,3.08,0.643,4.176,1.924
				v-1.924h2.795V165.998z M194.127,159.06c0-1.141-0.412-2.121-1.234-2.943s-1.803-1.234-2.941-1.234
				c-1.129,0-2.104,0.412-2.92,1.234s-1.225,1.803-1.225,2.943c0,1.139,0.406,2.109,1.217,2.91c0.813,0.799,1.787,1.199,2.928,1.199
				c1.139,0,2.119-0.402,2.941-1.209C193.715,161.156,194.127,160.189,194.127,159.06z"/>
			<path fill="#6F8FAD" d="M208.529,152.056l-1.086,3.107c-0.361-0.143-0.75-0.215-1.166-0.215c-0.998,0-1.836,0.434-2.516,1.299
				c-0.615,0.811-0.922,1.727-0.922,2.746v7.004h-2.828v-13.941h2.828v2.859c0.943-2.061,2.379-3.09,4.309-3.09
				C207.564,151.826,208.025,151.902,208.529,152.056z"/>
			<path fill="#6F8FAD" d="M222.373,159.043c0,0.34-0.027,0.686-0.082,1.037h-10.49c0.221,0.887,0.691,1.625,1.414,2.211
				s1.535,0.879,2.434,0.879c2.072,0,3.535-0.713,4.391-2.137l2.137,1.727c-1.611,2.16-3.787,3.238-6.527,3.238
				c-1.875,0-3.463-0.688-4.768-2.063c-1.305-1.377-1.957-3.006-1.957-4.891c0-1.887,0.652-3.521,1.957-4.908s2.895-2.08,4.768-2.08
				c1.875,0,3.465,0.693,4.768,2.08C221.721,155.521,222.373,157.158,222.373,159.043z M219.463,157.826
				c-0.252-0.844-0.73-1.545-1.438-2.105c-0.707-0.559-1.5-0.838-2.375-0.838c-0.867,0-1.656,0.279-2.369,0.838
				c-0.713,0.561-1.193,1.262-1.447,2.105H219.463z"/>
			<path fill="#6F8FAD" d="M227.357,165.998h-2.73v-24.219h2.73V165.998z"/>
			<path fill="#6F8FAD" d="M241.563,161.986c0,1.393-0.586,2.461-1.76,3.207c-0.998,0.646-2.23,0.971-3.699,0.971
				c-1.26,0-2.521-0.27-3.783-0.807c-1.303-0.559-2.346-1.299-3.123-2.219l1.793-1.99c1.6,1.523,3.305,2.285,5.113,2.285
				c1.6,0,2.4-0.492,2.4-1.48c0-0.656-0.723-1.154-2.17-1.494c-2.215-0.516-3.559-0.889-4.029-1.119
				c-1.436-0.701-2.152-1.824-2.152-3.369c0-1.359,0.574-2.434,1.725-3.223c1.01-0.68,2.227-1.02,3.65-1.02
				c2.27,0,4.281,0.684,6.035,2.055l-1.414,1.973c-1.535-0.963-3.086-1.445-4.652-1.445c-0.539,0-1.027,0.137-1.465,0.41
				c-0.504,0.318-0.756,0.734-0.756,1.25c0,0.635,0.717,1.139,2.154,1.512c2.203,0.592,3.529,0.998,3.979,1.217
				C240.846,159.422,241.563,160.517,241.563,161.986z"/>
		</g>
	</g>
</g>
</svg>
